<svg xmlns="http://www.w3.org/2000/svg" xmlns:xlink="http://www.w3.org/1999/xlink" width="500" zoomAndPan="magnify" viewBox="0 0 310.5 671.999985" height="900" preserveAspectRatio="xMidYMid meet" version="1.0"><defs><g/><clipPath id="ebe1780254"><path d="M 66.820312 264.164062 L 243.179688 264.164062 L 243.179688 440.519531 L 66.820312 440.519531 Z M 66.820312 264.164062 " clip-rule="nonzero"/></clipPath><clipPath id="7502e7bb19"><path d="M 155 264.164062 C 106.300781 264.164062 66.820312 303.640625 66.820312 352.339844 C 66.820312 401.039062 106.300781 440.519531 155 440.519531 C 203.699219 440.519531 243.179688 401.039062 243.179688 352.339844 C 243.179688 303.640625 203.699219 264.164062 155 264.164062 Z M 155 264.164062 " clip-rule="nonzero"/></clipPath></defs><g clip-path="url(#ebe1780254)"><g clip-path="url(#7502e7bb19)"><path fill="#bbf177" d="M 66.820312 264.164062 L 243.179688 264.164062 L 243.179688 440.519531 L 66.820312 440.519531 Z M 66.820312 264.164062 " fill-opacity="1" fill-rule="nonzero"/></g></g><g fill="#97b380" fill-opacity="1"><g transform="translate(43.015086, 364.990217)"><g><path d="M 39.082031 -50.863281 L 39.035156 -50.8125 C 38.136719 -50.015625 37.136719 -49.613281 35.988281 -49.613281 L 10.332031 -49.613281 C 9.132812 -49.613281 8.136719 -50.015625 7.238281 -50.8125 L 7.238281 -50.863281 C 6.9375 -51.011719 6.6875 -51.011719 6.390625 -50.863281 C 6.089844 -50.714844 5.988281 -50.511719 5.988281 -50.214844 L 5.988281 -39.132812 C 5.988281 -38.785156 6.089844 -38.535156 6.390625 -38.433594 C 6.6875 -38.285156 6.9375 -38.285156 7.238281 -38.484375 C 8.136719 -39.28125 9.132812 -39.730469 10.332031 -39.730469 L 17.21875 -39.730469 C 17.46875 -39.730469 17.71875 -39.632812 17.917969 -39.433594 C 18.117188 -39.234375 18.21875 -38.984375 18.21875 -38.734375 L 18.21875 -4.390625 C 18.21875 -3.195312 17.820312 -2.144531 17.019531 -1.296875 L 16.972656 -1.246094 C 16.769531 -0.949219 16.769531 -0.699219 16.921875 -0.398438 C 17.019531 -0.101562 17.269531 0 17.621094 0 L 28.699219 0 C 29 0 29.199219 -0.101562 29.351562 -0.398438 C 29.5 -0.699219 29.5 -0.949219 29.351562 -1.246094 C 28.5 -2.144531 28.101562 -3.144531 28.101562 -4.34375 L 28.101562 -38.734375 C 28.101562 -38.984375 28.203125 -39.234375 28.402344 -39.433594 C 28.601562 -39.632812 28.800781 -39.730469 29.101562 -39.730469 L 35.988281 -39.730469 C 37.1875 -39.730469 38.183594 -39.28125 39.035156 -38.484375 L 39.082031 -38.484375 C 39.332031 -38.285156 39.582031 -38.285156 39.882812 -38.433594 C 40.179688 -38.535156 40.332031 -38.785156 40.332031 -39.132812 L 40.332031 -50.214844 C 40.332031 -50.511719 40.179688 -50.714844 39.882812 -50.863281 C 39.582031 -51.011719 39.332031 -51.011719 39.082031 -50.863281 Z M 39.082031 -50.863281 "/></g></g></g><g fill="#97b380" fill-opacity="1"><g transform="translate(89.333323, 364.990217)"><g><path d="M 36.335938 -49.964844 C 35.488281 -49.164062 34.492188 -48.816406 33.394531 -48.816406 L 6.789062 -48.816406 C 6.4375 -48.816406 6.1875 -48.667969 6.089844 -48.367188 C 5.941406 -48.066406 5.941406 -47.816406 6.140625 -47.570312 L 6.289062 -47.417969 C 7.085938 -46.519531 7.488281 -45.472656 7.488281 -44.273438 L 7.488281 -3.742188 C 7.488281 -3.144531 7.386719 -2.59375 7.1875 -2.046875 C 6.988281 -1.496094 6.6875 -1 6.289062 -0.597656 L 6.140625 -0.449219 C 5.941406 -0.148438 5.941406 0.101562 6.089844 0.398438 C 6.1875 0.699219 6.4375 0.796875 6.789062 0.796875 L 33.394531 0.796875 C 34.492188 0.796875 35.488281 1.199219 36.335938 1.945312 C 36.585938 2.195312 36.886719 2.246094 37.1875 2.097656 C 37.484375 1.996094 37.683594 1.746094 37.683594 1.347656 L 37.683594 -9.785156 C 37.683594 -10.082031 37.535156 -10.332031 37.234375 -10.480469 C 36.9375 -10.582031 36.636719 -10.53125 36.4375 -10.332031 C 35.539062 -9.484375 34.492188 -9.085938 33.292969 -9.085938 L 18.617188 -9.085938 C 18.269531 -9.085938 17.96875 -9.183594 17.71875 -9.433594 C 17.46875 -9.632812 17.371094 -9.933594 17.371094 -10.332031 L 17.371094 -17.820312 C 17.371094 -18.167969 17.46875 -18.46875 17.71875 -18.71875 C 17.96875 -18.917969 18.269531 -19.066406 18.617188 -19.066406 L 23.011719 -19.066406 C 24.207031 -19.066406 25.257812 -18.617188 26.15625 -17.820312 C 26.40625 -17.621094 26.65625 -17.621094 26.953125 -17.769531 C 27.253906 -17.917969 27.402344 -18.167969 27.402344 -18.46875 L 27.402344 -29.550781 C 27.402344 -29.847656 27.253906 -30.046875 26.953125 -30.199219 C 26.65625 -30.347656 26.40625 -30.347656 26.15625 -30.199219 C 25.257812 -29.351562 24.207031 -28.949219 23.011719 -28.949219 L 18.617188 -28.949219 C 18.269531 -28.949219 17.96875 -29.050781 17.71875 -29.300781 C 17.46875 -29.5 17.371094 -29.800781 17.371094 -30.199219 L 17.371094 -37.683594 C 17.371094 -38.035156 17.46875 -38.335938 17.71875 -38.585938 C 17.96875 -38.785156 18.269531 -38.933594 18.617188 -38.933594 L 33.292969 -38.933594 C 34.492188 -38.933594 35.539062 -38.484375 36.4375 -37.683594 C 36.636719 -37.4375 36.9375 -37.386719 37.234375 -37.535156 C 37.535156 -37.636719 37.683594 -37.886719 37.683594 -38.234375 L 37.683594 -49.414062 C 37.683594 -49.714844 37.484375 -49.964844 37.1875 -50.113281 C 36.886719 -50.214844 36.585938 -50.164062 36.335938 -49.964844 Z M 36.335938 -49.964844 "/></g></g></g><g fill="#97b380" fill-opacity="1"><g transform="translate(133.006227, 364.990217)"><g><path d="M 40.832031 -1.246094 L 40.082031 -1.847656 C 39.28125 -2.496094 38.585938 -3.292969 38.035156 -4.191406 L 31.84375 -14.074219 C 31.644531 -14.375 31.546875 -14.726562 31.644531 -15.125 C 31.746094 -15.472656 31.945312 -15.773438 32.292969 -16.023438 C 33.542969 -16.921875 34.640625 -17.917969 35.539062 -19.066406 C 36.886719 -20.714844 37.933594 -22.609375 38.632812 -24.707031 C 39.332031 -26.804688 39.730469 -29 39.730469 -31.296875 C 39.730469 -33.59375 39.332031 -35.839844 38.632812 -37.933594 C 37.933594 -40.03125 36.886719 -41.929688 35.539062 -43.625 C 33.941406 -45.523438 31.996094 -47.019531 29.800781 -48.066406 C 27.554688 -49.066406 25.105469 -49.613281 22.511719 -49.613281 L 6.738281 -49.613281 C 6.390625 -49.613281 6.140625 -49.464844 6.039062 -49.164062 C 5.890625 -48.867188 5.941406 -48.617188 6.1875 -48.367188 C 6.988281 -47.46875 7.4375 -46.421875 7.4375 -45.222656 L 7.4375 -4.292969 C 7.4375 -3.144531 7.039062 -2.144531 6.289062 -1.296875 C 5.988281 -1 5.941406 -0.75 6.089844 -0.449219 C 6.1875 -0.148438 6.4375 0 6.839844 0 L 18.019531 0 C 18.320312 0 18.566406 -0.101562 18.667969 -0.398438 C 18.769531 -0.699219 18.769531 -0.949219 18.566406 -1.246094 C 17.71875 -2.144531 17.320312 -3.144531 17.320312 -4.34375 L 17.320312 -11.628906 C 17.320312 -12.03125 17.421875 -12.378906 17.71875 -12.679688 C 18.019531 -12.976562 18.367188 -13.128906 18.769531 -13.128906 L 19.964844 -13.128906 C 20.464844 -13.128906 20.914062 -12.878906 21.214844 -12.429688 L 27.351562 -2.546875 C 27.601562 -2.097656 27.554688 -1.695312 27.253906 -1.296875 L 27.203125 -1.246094 C 27.003906 -0.949219 27.003906 -0.699219 27.152344 -0.398438 C 27.253906 -0.101562 27.503906 0 27.851562 0 L 40.480469 0 C 40.832031 0 41.03125 -0.148438 41.128906 -0.449219 C 41.230469 -0.75 41.128906 -1 40.832031 -1.246094 Z M 27.902344 -25.355469 C 26.65625 -23.757812 24.859375 -23.011719 22.511719 -23.011719 L 18.769531 -23.011719 C 18.367188 -23.011719 18.019531 -23.109375 17.71875 -23.410156 C 17.421875 -23.710938 17.320312 -24.058594 17.320312 -24.457031 L 17.320312 -38.234375 C 17.320312 -38.632812 17.421875 -38.984375 17.71875 -39.28125 C 18.019531 -39.582031 18.367188 -39.730469 18.769531 -39.730469 L 22.511719 -39.730469 C 24.308594 -39.730469 25.65625 -39.332031 26.65625 -38.535156 C 27.652344 -37.734375 28.351562 -36.835938 28.851562 -35.839844 C 29.300781 -34.839844 29.597656 -33.890625 29.699219 -32.992188 C 29.800781 -32.09375 29.847656 -31.496094 29.847656 -31.296875 C 29.847656 -30.097656 29.648438 -29 29.351562 -28.003906 C 29 -27.003906 28.5 -26.105469 27.902344 -25.355469 Z M 27.902344 -25.355469 "/></g></g></g><g fill="#97b380" fill-opacity="1"><g transform="translate(180.17296, 364.990217)"><g><path d="M 40.832031 -1.246094 L 40.082031 -1.847656 C 39.28125 -2.496094 38.585938 -3.292969 38.035156 -4.191406 L 31.84375 -14.074219 C 31.644531 -14.375 31.546875 -14.726562 31.644531 -15.125 C 31.746094 -15.472656 31.945312 -15.773438 32.292969 -16.023438 C 33.542969 -16.921875 34.640625 -17.917969 35.539062 -19.066406 C 36.886719 -20.714844 37.933594 -22.609375 38.632812 -24.707031 C 39.332031 -26.804688 39.730469 -29 39.730469 -31.296875 C 39.730469 -33.59375 39.332031 -35.839844 38.632812 -37.933594 C 37.933594 -40.03125 36.886719 -41.929688 35.539062 -43.625 C 33.941406 -45.523438 31.996094 -47.019531 29.800781 -48.066406 C 27.554688 -49.066406 25.105469 -49.613281 22.511719 -49.613281 L 6.738281 -49.613281 C 6.390625 -49.613281 6.140625 -49.464844 6.039062 -49.164062 C 5.890625 -48.867188 5.941406 -48.617188 6.1875 -48.367188 C 6.988281 -47.46875 7.4375 -46.421875 7.4375 -45.222656 L 7.4375 -4.292969 C 7.4375 -3.144531 7.039062 -2.144531 6.289062 -1.296875 C 5.988281 -1 5.941406 -0.75 6.089844 -0.449219 C 6.1875 -0.148438 6.4375 0 6.839844 0 L 18.019531 0 C 18.320312 0 18.566406 -0.101562 18.667969 -0.398438 C 18.769531 -0.699219 18.769531 -0.949219 18.566406 -1.246094 C 17.71875 -2.144531 17.320312 -3.144531 17.320312 -4.34375 L 17.320312 -11.628906 C 17.320312 -12.03125 17.421875 -12.378906 17.71875 -12.679688 C 18.019531 -12.976562 18.367188 -13.128906 18.769531 -13.128906 L 19.964844 -13.128906 C 20.464844 -13.128906 20.914062 -12.878906 21.214844 -12.429688 L 27.351562 -2.546875 C 27.601562 -2.097656 27.554688 -1.695312 27.253906 -1.296875 L 27.203125 -1.246094 C 27.003906 -0.949219 27.003906 -0.699219 27.152344 -0.398438 C 27.253906 -0.101562 27.503906 0 27.851562 0 L 40.480469 0 C 40.832031 0 41.03125 -0.148438 41.128906 -0.449219 C 41.230469 -0.75 41.128906 -1 40.832031 -1.246094 Z M 27.902344 -25.355469 C 26.65625 -23.757812 24.859375 -23.011719 22.511719 -23.011719 L 18.769531 -23.011719 C 18.367188 -23.011719 18.019531 -23.109375 17.71875 -23.410156 C 17.421875 -23.710938 17.320312 -24.058594 17.320312 -24.457031 L 17.320312 -38.234375 C 17.320312 -38.632812 17.421875 -38.984375 17.71875 -39.28125 C 18.019531 -39.582031 18.367188 -39.730469 18.769531 -39.730469 L 22.511719 -39.730469 C 24.308594 -39.730469 25.65625 -39.332031 26.65625 -38.535156 C 27.652344 -37.734375 28.351562 -36.835938 28.851562 -35.839844 C 29.300781 -34.839844 29.597656 -33.890625 29.699219 -32.992188 C 29.800781 -32.09375 29.847656 -31.496094 29.847656 -31.296875 C 29.847656 -30.097656 29.648438 -29 29.351562 -28.003906 C 29 -27.003906 28.5 -26.105469 27.902344 -25.355469 Z M 27.902344 -25.355469 "/></g></g></g><g fill="#97b380" fill-opacity="1"><g transform="translate(227.339693, 364.990217)"><g><path d="M 45.421875 -0.898438 C 45.421875 -1.097656 45.324219 -1.246094 45.171875 -1.347656 C 44.023438 -2.296875 43.277344 -3.492188 42.875 -4.992188 L 30.945312 -46.222656 C 30.699219 -47.019531 30.847656 -47.769531 31.445312 -48.367188 C 31.597656 -48.617188 31.597656 -48.867188 31.496094 -49.164062 C 31.347656 -49.464844 31.097656 -49.613281 30.796875 -49.613281 L 17.621094 -49.613281 C 17.320312 -49.613281 17.070312 -49.464844 16.921875 -49.164062 C 16.769531 -48.867188 16.769531 -48.617188 16.972656 -48.367188 C 17.570312 -47.769531 17.71875 -47.019531 17.46875 -46.222656 L 5.589844 -4.941406 C 5.191406 -3.542969 4.390625 -2.347656 3.246094 -1.347656 C 3.09375 -1.199219 2.996094 -1.046875 2.996094 -0.898438 C 2.945312 -0.648438 2.996094 -0.449219 3.144531 -0.25 C 3.292969 -0.0507812 3.492188 0 3.792969 0 L 15.375 0 C 15.671875 0 15.921875 -0.101562 16.023438 -0.398438 C 16.121094 -0.699219 16.121094 -0.949219 15.921875 -1.199219 C 15.324219 -1.796875 15.175781 -2.546875 15.375 -3.34375 L 16.921875 -8.535156 C 17.070312 -9.085938 17.371094 -9.535156 17.820312 -9.832031 C 18.21875 -10.132812 18.71875 -10.332031 19.316406 -10.332031 L 29.148438 -10.332031 C 29.699219 -10.332031 30.199219 -10.132812 30.648438 -9.832031 C 31.046875 -9.535156 31.347656 -9.085938 31.546875 -8.535156 L 33.042969 -3.34375 C 33.242188 -2.546875 33.042969 -1.847656 32.542969 -1.246094 L 32.542969 -1.199219 C 32.34375 -0.898438 32.34375 -0.648438 32.496094 -0.398438 C 32.59375 -0.101562 32.84375 0 33.191406 0 L 44.671875 0 C 44.921875 0 45.121094 -0.0507812 45.273438 -0.25 C 45.421875 -0.449219 45.472656 -0.648438 45.421875 -0.898438 Z M 27.453125 -20.214844 L 21.015625 -20.214844 C 20.8125 -20.214844 20.664062 -20.265625 20.566406 -20.414062 C 20.414062 -20.566406 20.363281 -20.765625 20.464844 -20.964844 L 23.710938 -32.09375 C 23.757812 -32.34375 23.910156 -32.496094 24.207031 -32.496094 C 24.507812 -32.496094 24.65625 -32.34375 24.757812 -32.09375 L 27.953125 -20.964844 C 28.003906 -20.765625 27.953125 -20.566406 27.851562 -20.414062 C 27.753906 -20.265625 27.601562 -20.214844 27.453125 -20.214844 Z M 27.453125 -20.214844 "/></g></g></g><path stroke-linecap="butt" transform="matrix(0.748794, 0, 0, 0.748794, 36.02881, 308.162327)" fill="none" stroke-linejoin="miter" d="M 55.62915 2.068139 L 55.56655 2.135957 C 54.361487 3.210601 53.026007 3.747923 51.497508 3.747923 L 17.239304 3.747923 C 15.642987 3.747923 14.307507 3.210601 13.102444 2.135957 L 13.102444 2.068139 C 12.69554 1.875121 12.372103 1.875121 11.965199 2.068139 C 11.573945 2.266375 11.443527 2.542861 11.443527 2.934115 L 11.443527 17.744385 C 11.443527 18.198239 11.573945 18.542543 11.965199 18.672961 C 12.372103 18.86598 12.69554 18.86598 13.102444 18.605143 C 14.307507 17.530499 15.642987 16.946226 17.239304 16.946226 L 26.431165 16.946226 C 26.775469 16.946226 27.098906 17.076644 27.359742 17.33748 C 27.636228 17.613967 27.766646 17.937403 27.766646 18.281707 L 27.766646 64.141897 C 27.766646 65.738214 27.229324 67.136295 26.170329 68.27354 L 26.107729 68.341357 C 25.831242 68.732611 25.831242 69.071698 26.045128 69.462952 C 26.170329 69.869856 26.498983 70.000274 26.968488 70.000274 L 41.763107 70.000274 C 42.170011 70.000274 42.430847 69.869856 42.623866 69.462952 C 42.837751 69.071698 42.837751 68.732611 42.623866 68.341357 C 41.502271 67.136295 40.964949 65.800814 40.964949 64.204498 L 40.964949 18.281707 C 40.964949 17.937403 41.095367 17.613967 41.371853 17.33748 C 41.632689 17.076644 41.893525 16.946226 42.300429 16.946226 L 51.497508 16.946226 C 53.109474 16.946226 54.424088 17.530499 55.56655 18.605143 L 55.62915 18.605143 C 55.973454 18.86598 56.296891 18.86598 56.703795 18.672961 C 57.095049 18.542543 57.303718 18.198239 57.303718 17.744385 L 57.303718 2.934115 C 57.303718 2.542861 57.095049 2.266375 56.703795 2.068139 C 56.296891 1.875121 55.973454 1.875121 55.62915 2.068139 Z M 113.826885 3.273202 C 112.684423 4.332196 111.348943 4.806918 109.888261 4.806918 L 74.357177 4.806918 C 73.887672 4.806918 73.564236 4.999936 73.433818 5.40684 C 73.219932 5.813745 73.219932 6.137181 73.496418 6.481485 L 73.694654 6.674504 C 74.764081 7.879566 75.285753 9.277647 75.285753 10.873964 L 75.285753 65.002656 C 75.285753 65.800814 75.155335 66.531155 74.894499 67.266713 C 74.618013 67.997054 74.226759 68.664794 73.694654 69.202116 L 73.496418 69.400352 C 73.219932 69.807256 73.219932 70.130692 73.433818 70.537597 C 73.564236 70.928851 73.887672 71.074919 74.357177 71.074919 L 109.888261 71.074919 C 111.348943 71.074919 112.684423 71.596591 113.826885 72.603418 C 114.150322 72.926855 114.557226 72.994672 114.96413 72.801653 C 115.355384 72.671235 115.61622 72.326932 115.61622 71.80526 L 115.61622 56.932389 C 115.61622 56.541135 115.417985 56.196832 115.026731 56.003813 C 114.619826 55.873395 114.212922 55.941213 113.957303 56.196832 C 112.75224 57.339294 111.348943 57.876616 109.757843 57.876616 L 90.16384 57.876616 C 89.689119 57.876616 89.297865 57.730548 88.958778 57.401894 C 88.630125 57.125408 88.484056 56.734154 88.484056 56.196832 L 88.484056 46.206812 C 88.484056 45.737307 88.630125 45.330403 88.958778 45.00175 C 89.297865 44.740913 89.689119 44.532245 90.16384 44.532245 L 96.022218 44.532245 C 97.634184 44.532245 99.032265 45.132168 100.221678 46.206812 C 100.560764 46.467648 100.884201 46.467648 101.291105 46.269413 C 101.682359 46.076394 101.896245 45.737307 101.896245 45.330403 L 101.896245 30.535783 C 101.896245 30.144529 101.682359 29.868043 101.291105 29.669808 C 100.884201 29.476789 100.560764 29.476789 100.221678 29.669808 C 99.032265 30.81227 97.634184 31.333942 96.022218 31.333942 L 90.16384 31.333942 C 89.689119 31.333942 89.297865 31.203524 88.958778 30.87487 C 88.630125 30.598384 88.484056 30.20713 88.484056 29.669808 L 88.484056 19.679788 C 88.484056 19.205066 88.630125 18.798162 88.958778 18.474725 C 89.297865 18.198239 89.689119 18.005221 90.16384 18.005221 L 109.757843 18.005221 C 111.348943 18.005221 112.75224 18.605143 113.957303 19.679788 C 114.212922 20.003225 114.619826 20.071042 115.026731 19.872807 C 115.417985 19.742389 115.61622 19.403302 115.61622 18.92858 L 115.61622 4.008759 C 115.61622 3.601855 115.355384 3.273202 114.96413 3.080183 C 114.557226 2.934115 114.150322 3.012366 113.826885 3.273202 Z M 178.154266 68.341357 L 177.147439 67.527549 C 176.088445 66.661573 175.144218 65.607796 174.413877 64.402733 L 166.145375 51.20443 C 165.884539 50.797526 165.754121 50.338455 165.884539 49.801132 C 166.014957 49.331628 166.275793 48.940374 166.745298 48.601287 C 168.419866 47.396224 169.885764 46.076394 171.075176 44.532245 C 172.880162 42.336005 174.283459 39.811113 175.206819 36.994083 C 176.151045 34.197921 176.672717 31.266124 176.672717 28.209126 C 176.672717 25.131261 176.151045 22.136863 175.206819 19.335484 C 174.283459 16.539322 172.880162 13.998779 171.075176 11.739939 C 168.941538 9.199396 166.354044 7.211826 163.411814 5.813745 C 160.417416 4.478264 157.146532 3.747923 153.677413 3.747923 L 132.617512 3.747923 C 132.148007 3.747923 131.819354 3.940942 131.688936 4.332196 C 131.480267 4.7391 131.542868 5.083404 131.887171 5.40684 C 132.946166 6.611903 133.546089 8.009984 133.546089 9.606301 L 133.546089 64.272315 C 133.546089 65.800814 133.024417 67.136295 132.017589 68.27354 C 131.626335 68.664794 131.542868 69.009098 131.756753 69.400352 C 131.887171 69.807256 132.210608 70.000274 132.74793 70.000274 L 147.688618 70.000274 C 148.079872 70.000274 148.418959 69.869856 148.549377 69.462952 C 148.679795 69.071698 148.679795 68.732611 148.418959 68.341357 C 147.281714 67.136295 146.744392 65.800814 146.744392 64.204498 L 146.744392 54.475314 C 146.744392 53.937992 146.89046 53.46327 147.281714 53.072016 C 147.688618 52.670329 148.142473 52.472093 148.679795 52.472093 L 150.276111 52.472093 C 150.943852 52.472093 151.543775 52.79553 151.950679 53.40067 L 160.15658 66.598973 C 160.480017 67.198896 160.417416 67.736218 160.010512 68.27354 L 159.942695 68.341357 C 159.681859 68.732611 159.681859 69.071698 159.880094 69.462952 C 160.010512 69.869856 160.349599 70.000274 160.82432 70.000274 L 177.684761 70.000274 C 178.154266 70.000274 178.415102 69.807256 178.54552 69.400352 C 178.675938 69.009098 178.54552 68.664794 178.154266 68.341357 Z M 160.886921 36.133325 C 159.212354 38.266963 156.817879 39.27379 153.677413 39.27379 L 148.679795 39.27379 C 148.142473 39.27379 147.688618 39.143372 147.281714 38.736468 C 146.89046 38.329564 146.744392 37.875709 146.744392 37.338387 L 146.744392 18.92858 C 146.744392 18.412125 146.89046 17.937403 147.281714 17.530499 C 147.688618 17.139245 148.142473 16.946226 148.679795 16.946226 L 153.677413 16.946226 C 156.087538 16.946226 157.876873 17.467898 159.212354 18.542543 C 160.547834 19.59632 161.492061 20.801383 162.138934 22.136863 C 162.744074 23.472344 163.150978 24.740007 163.281396 25.945069 C 163.411814 27.134482 163.474414 27.93264 163.474414 28.209126 C 163.474414 29.800226 163.213578 31.266124 162.806674 32.601605 C 162.35282 33.937085 161.685079 35.142148 160.886921 36.133325 Z M 241.146167 68.341357 L 240.134123 67.527549 C 239.080346 66.661573 238.136119 65.607796 237.400561 64.402733 L 229.132059 51.20443 C 228.871223 50.797526 228.746022 50.338455 228.871223 49.801132 C 229.001641 49.331628 229.262477 48.940374 229.737199 48.601287 C 231.411766 47.396224 232.877665 46.076394 234.067077 44.532245 C 235.872062 42.336005 237.270143 39.811113 238.19872 36.994083 C 239.142946 34.197921 239.664618 31.266124 239.664618 28.209126 C 239.664618 25.131261 239.142946 22.136863 238.19872 19.335484 C 237.270143 16.539322 235.872062 13.998779 234.067077 11.739939 C 231.933438 9.199396 229.345945 7.211826 226.398498 5.813745 C 223.4041 4.478264 220.133216 3.747923 216.669314 3.747923 L 195.609413 3.747923 C 195.134692 3.747923 194.811255 3.940942 194.680837 4.332196 C 194.472168 4.7391 194.534769 5.083404 194.879072 5.40684 C 195.93285 6.611903 196.537989 8.009984 196.537989 9.606301 L 196.537989 64.272315 C 196.537989 65.800814 196.016317 67.136295 195.004273 68.27354 C 194.618236 68.664794 194.534769 69.009098 194.748654 69.400352 C 194.879072 69.807256 195.202509 70.000274 195.739831 70.000274 L 210.680519 70.000274 C 211.071773 70.000274 211.41086 69.869856 211.541278 69.462952 C 211.671696 69.071698 211.671696 68.732611 211.41086 68.341357 C 210.273615 67.136295 209.736292 65.800814 209.736292 64.204498 L 209.736292 54.475314 C 209.736292 53.937992 209.882361 53.46327 210.273615 53.072016 C 210.680519 52.670329 211.134373 52.472093 211.671696 52.472093 L 213.268012 52.472093 C 213.935752 52.472093 214.535675 52.79553 214.942579 53.40067 L 223.143264 66.598973 C 223.471918 67.198896 223.4041 67.736218 222.997196 68.27354 L 222.934595 68.341357 C 222.673759 68.732611 222.673759 69.071698 222.866778 69.462952 C 222.997196 69.869856 223.3415 70.000274 223.811004 70.000274 L 240.671445 70.000274 C 241.146167 70.000274 241.407003 69.807256 241.537421 69.400352 C 241.667839 69.009098 241.537421 68.664794 241.146167 68.341357 Z M 223.878822 36.133325 C 222.199038 38.266963 219.80978 39.27379 216.669314 39.27379 L 211.671696 39.27379 C 211.134373 39.27379 210.680519 39.143372 210.273615 38.736468 C 209.882361 38.329564 209.736292 37.875709 209.736292 37.338387 L 209.736292 18.92858 C 209.736292 18.412125 209.882361 17.937403 210.273615 17.530499 C 210.680519 17.139245 211.134373 16.946226 211.671696 16.946226 L 216.669314 16.946226 C 219.074222 16.946226 220.868774 17.467898 222.199038 18.542543 C 223.534518 19.59632 224.478745 20.801383 225.130835 22.136863 C 225.730758 23.472344 226.137662 24.740007 226.26808 25.945069 C 226.398498 27.134482 226.466315 27.93264 226.466315 28.209126 C 226.466315 29.800226 226.205479 31.266124 225.798575 32.601605 C 225.34472 33.937085 224.67698 35.142148 223.878822 36.133325 Z M 310.252064 68.795212 C 310.252064 68.534376 310.121646 68.341357 309.928627 68.195289 C 308.400128 66.938059 307.388085 65.33131 306.850762 63.328089 L 290.934548 8.27082 C 290.595461 7.211826 290.78848 6.204999 291.586638 5.40684 C 291.800524 5.083404 291.800524 4.7391 291.670105 4.332196 C 291.45622 3.940942 291.132783 3.747923 290.725879 3.747923 L 273.129881 3.747923 C 272.722976 3.747923 272.39954 3.940942 272.206521 4.332196 C 271.992636 4.7391 271.992636 5.083404 272.269122 5.40684 C 273.06728 6.204999 273.260299 7.211826 272.936862 8.27082 L 257.067598 63.39069 C 256.530276 65.263492 255.455631 66.859809 253.927132 68.195289 C 253.734114 68.403958 253.603696 68.602193 253.603696 68.795212 C 253.535878 69.139516 253.603696 69.400352 253.796714 69.676838 C 253.99495 69.932457 254.271436 70.000274 254.66269 70.000274 L 270.135483 70.000274 C 270.526737 70.000274 270.871041 69.869856 271.001459 69.462952 C 271.131877 69.071698 271.131877 68.732611 270.871041 68.403958 C 270.057232 67.6058 269.858997 66.598973 270.135483 65.539978 L 272.206521 58.606957 C 272.39954 57.876616 272.790794 57.271476 273.390717 56.864572 C 273.928039 56.478535 274.595779 56.196832 275.393937 56.196832 L 288.52964 56.196832 C 289.259981 56.196832 289.927721 56.478535 290.527644 56.864572 C 291.064966 57.271476 291.45622 57.876616 291.732706 58.606957 L 293.735927 65.539978 C 293.996763 66.598973 293.735927 67.527549 293.068187 68.341357 L 293.068187 68.403958 C 292.7917 68.795212 292.7917 69.139516 292.984719 69.462952 C 293.136004 69.869856 293.459441 70.000274 293.928945 70.000274 L 309.260887 70.000274 C 309.584324 70.000274 309.866027 69.932457 310.059045 69.676838 C 310.252064 69.400352 310.319881 69.139516 310.252064 68.795212 Z M 286.265583 42.998529 L 277.657994 42.998529 C 277.397158 42.998529 277.198923 42.935928 277.068505 42.74291 C 276.859836 42.529024 276.792018 42.268188 276.922436 42.007352 L 281.267965 27.134482 C 281.335782 26.805828 281.528801 26.61281 281.935705 26.61281 C 282.326959 26.61281 282.519978 26.805828 282.671263 27.134482 L 286.933323 42.007352 C 286.995924 42.268188 286.933323 42.529024 286.802905 42.74291 C 286.656837 42.935928 286.458602 42.998529 286.265583 42.998529 Z M 286.265583 42.998529 " stroke="#28502e" stroke-width="2.416657" stroke-opacity="1" stroke-miterlimit="4"/><g fill="#97b380" fill-opacity="1"><g transform="translate(68.836785, 409.169074)"><g><path d="M 39.082031 -50.863281 L 39.035156 -50.8125 C 38.136719 -50.015625 37.136719 -49.613281 35.988281 -49.613281 L 10.332031 -49.613281 C 9.132812 -49.613281 8.136719 -50.015625 7.238281 -50.8125 L 7.238281 -50.863281 C 6.9375 -51.011719 6.6875 -51.011719 6.390625 -50.863281 C 6.089844 -50.714844 5.988281 -50.511719 5.988281 -50.214844 L 5.988281 -39.132812 C 5.988281 -38.785156 6.089844 -38.535156 6.390625 -38.433594 C 6.6875 -38.285156 6.9375 -38.285156 7.238281 -38.484375 C 8.136719 -39.28125 9.132812 -39.730469 10.332031 -39.730469 L 17.21875 -39.730469 C 17.46875 -39.730469 17.71875 -39.632812 17.917969 -39.433594 C 18.117188 -39.234375 18.21875 -38.984375 18.21875 -38.734375 L 18.21875 -4.390625 C 18.21875 -3.195312 17.820312 -2.144531 17.019531 -1.296875 L 16.972656 -1.246094 C 16.769531 -0.949219 16.769531 -0.699219 16.921875 -0.398438 C 17.019531 -0.101562 17.269531 0 17.621094 0 L 28.699219 0 C 29 0 29.199219 -0.101562 29.351562 -0.398438 C 29.5 -0.699219 29.5 -0.949219 29.351562 -1.246094 C 28.5 -2.144531 28.101562 -3.144531 28.101562 -4.34375 L 28.101562 -38.734375 C 28.101562 -38.984375 28.203125 -39.234375 28.402344 -39.433594 C 28.601562 -39.632812 28.800781 -39.730469 29.101562 -39.730469 L 35.988281 -39.730469 C 37.1875 -39.730469 38.183594 -39.28125 39.035156 -38.484375 L 39.082031 -38.484375 C 39.332031 -38.285156 39.582031 -38.285156 39.882812 -38.433594 C 40.179688 -38.535156 40.332031 -38.785156 40.332031 -39.132812 L 40.332031 -50.214844 C 40.332031 -50.511719 40.179688 -50.714844 39.882812 -50.863281 C 39.582031 -51.011719 39.332031 -51.011719 39.082031 -50.863281 Z M 39.082031 -50.863281 "/></g></g></g><g fill="#97b380" fill-opacity="1"><g transform="translate(115.155023, 409.169074)"><g><path d="M 36.335938 -49.964844 C 35.488281 -49.164062 34.492188 -48.816406 33.394531 -48.816406 L 6.789062 -48.816406 C 6.4375 -48.816406 6.1875 -48.667969 6.089844 -48.367188 C 5.941406 -48.066406 5.941406 -47.816406 6.140625 -47.570312 L 6.289062 -47.417969 C 7.085938 -46.519531 7.488281 -45.472656 7.488281 -44.273438 L 7.488281 -3.742188 C 7.488281 -3.144531 7.386719 -2.59375 7.1875 -2.046875 C 6.988281 -1.496094 6.6875 -1 6.289062 -0.597656 L 6.140625 -0.449219 C 5.941406 -0.148438 5.941406 0.101562 6.089844 0.398438 C 6.1875 0.699219 6.4375 0.796875 6.789062 0.796875 L 33.394531 0.796875 C 34.492188 0.796875 35.488281 1.199219 36.335938 1.945312 C 36.585938 2.195312 36.886719 2.246094 37.1875 2.097656 C 37.484375 1.996094 37.683594 1.746094 37.683594 1.347656 L 37.683594 -9.785156 C 37.683594 -10.082031 37.535156 -10.332031 37.234375 -10.480469 C 36.9375 -10.582031 36.636719 -10.53125 36.4375 -10.332031 C 35.539062 -9.484375 34.492188 -9.085938 33.292969 -9.085938 L 18.617188 -9.085938 C 18.269531 -9.085938 17.96875 -9.183594 17.71875 -9.433594 C 17.46875 -9.632812 17.371094 -9.933594 17.371094 -10.332031 L 17.371094 -17.820312 C 17.371094 -18.167969 17.46875 -18.46875 17.71875 -18.71875 C 17.96875 -18.917969 18.269531 -19.066406 18.617188 -19.066406 L 23.011719 -19.066406 C 24.207031 -19.066406 25.257812 -18.617188 26.15625 -17.820312 C 26.40625 -17.621094 26.65625 -17.621094 26.953125 -17.769531 C 27.253906 -17.917969 27.402344 -18.167969 27.402344 -18.46875 L 27.402344 -29.550781 C 27.402344 -29.847656 27.253906 -30.046875 26.953125 -30.199219 C 26.65625 -30.347656 26.40625 -30.347656 26.15625 -30.199219 C 25.257812 -29.351562 24.207031 -28.949219 23.011719 -28.949219 L 18.617188 -28.949219 C 18.269531 -28.949219 17.96875 -29.050781 17.71875 -29.300781 C 17.46875 -29.5 17.371094 -29.800781 17.371094 -30.199219 L 17.371094 -37.683594 C 17.371094 -38.035156 17.46875 -38.335938 17.71875 -38.585938 C 17.96875 -38.785156 18.269531 -38.933594 18.617188 -38.933594 L 33.292969 -38.933594 C 34.492188 -38.933594 35.539062 -38.484375 36.4375 -37.683594 C 36.636719 -37.4375 36.9375 -37.386719 37.234375 -37.535156 C 37.535156 -37.636719 37.683594 -37.886719 37.683594 -38.234375 L 37.683594 -49.414062 C 37.683594 -49.714844 37.484375 -49.964844 37.1875 -50.113281 C 36.886719 -50.214844 36.585938 -50.164062 36.335938 -49.964844 Z M 36.335938 -49.964844 "/></g></g></g><g fill="#97b380" fill-opacity="1"><g transform="translate(158.827927, 409.169074)"><g><path d="M 34.292969 -52.109375 C 33.441406 -51.3125 32.445312 -50.960938 31.347656 -50.960938 L 26.453125 -50.960938 C 22.8125 -50.960938 19.515625 -50.265625 16.523438 -48.917969 C 13.527344 -47.570312 10.980469 -45.570312 8.785156 -42.976562 C 6.886719 -40.679688 5.441406 -38.136719 4.441406 -35.238281 C 3.445312 -32.34375 2.996094 -29.351562 2.996094 -26.15625 C 2.996094 -23.0625 3.492188 -20.015625 4.492188 -17.070312 C 5.492188 -14.074219 6.9375 -11.429688 8.933594 -9.132812 C 10.929688 -6.789062 13.378906 -4.890625 16.273438 -3.492188 C 19.167969 -2.046875 22.5625 -1.347656 26.453125 -1.347656 L 31.347656 -1.347656 C 32.445312 -1.347656 33.441406 -0.949219 34.292969 -0.199219 C 34.539062 0.0507812 34.839844 0.101562 35.140625 -0.0507812 C 35.4375 -0.148438 35.589844 -0.398438 35.589844 -0.796875 L 35.589844 -11.929688 C 35.589844 -12.230469 35.4375 -12.480469 35.140625 -12.628906 C 34.839844 -12.726562 34.589844 -12.679688 34.390625 -12.480469 C 33.441406 -11.628906 32.394531 -11.230469 31.246094 -11.230469 L 26.453125 -11.230469 C 23.757812 -11.230469 21.511719 -11.730469 19.765625 -12.777344 C 18.019531 -13.777344 16.621094 -15.074219 15.625 -16.621094 C 14.625 -18.117188 13.875 -19.765625 13.476562 -21.464844 C 13.078125 -23.160156 12.878906 -24.757812 12.878906 -26.15625 C 12.878906 -28.152344 13.175781 -30.046875 13.777344 -31.894531 C 14.375 -33.691406 15.273438 -35.289062 16.371094 -36.636719 C 18.816406 -39.582031 22.160156 -41.078125 26.453125 -41.078125 L 31.246094 -41.078125 C 32.394531 -41.078125 33.441406 -40.628906 34.390625 -39.832031 C 34.589844 -39.582031 34.839844 -39.53125 35.140625 -39.683594 C 35.4375 -39.78125 35.589844 -40.03125 35.589844 -40.382812 L 35.589844 -51.5625 C 35.589844 -51.859375 35.4375 -52.109375 35.140625 -52.261719 C 34.839844 -52.359375 34.539062 -52.308594 34.292969 -52.109375 Z M 34.292969 -52.109375 "/></g></g></g><g fill="#97b380" fill-opacity="1"><g transform="translate(200.454444, 409.169074)"><g><path d="M 43.375 -1.246094 L 43.277344 -1.296875 C 42.476562 -2.144531 42.128906 -3.144531 42.128906 -4.34375 L 42.128906 -45.273438 C 42.128906 -46.421875 42.476562 -47.417969 43.277344 -48.316406 L 43.375 -48.367188 C 43.527344 -48.617188 43.527344 -48.867188 43.375 -49.164062 C 43.226562 -49.464844 43.027344 -49.613281 42.726562 -49.613281 L 31.644531 -49.613281 C 31.347656 -49.613281 31.097656 -49.464844 30.945312 -49.164062 C 30.796875 -48.867188 30.796875 -48.617188 30.996094 -48.367188 L 31.046875 -48.367188 C 31.84375 -47.46875 32.246094 -46.421875 32.246094 -45.324219 L 32.246094 -31.394531 C 32.246094 -30.898438 32.046875 -30.496094 31.746094 -30.199219 C 31.394531 -29.898438 30.996094 -29.75 30.546875 -29.75 L 18.96875 -29.75 C 18.46875 -29.75 18.070312 -29.898438 17.769531 -30.199219 C 17.421875 -30.496094 17.269531 -30.898438 17.269531 -31.394531 L 17.269531 -45.371094 C 17.269531 -46.46875 17.667969 -47.46875 18.46875 -48.367188 C 18.617188 -48.617188 18.617188 -48.867188 18.519531 -49.164062 C 18.367188 -49.464844 18.117188 -49.613281 17.820312 -49.613281 L 6.789062 -49.613281 C 6.4375 -49.613281 6.1875 -49.464844 6.089844 -49.164062 C 5.941406 -48.867188 5.941406 -48.617188 6.140625 -48.367188 L 6.238281 -48.265625 C 6.988281 -47.417969 7.386719 -46.421875 7.386719 -45.273438 L 7.386719 -4.390625 C 7.386719 -3.195312 6.988281 -2.144531 6.238281 -1.347656 L 6.140625 -1.246094 C 5.941406 -0.949219 5.941406 -0.699219 6.089844 -0.398438 C 6.1875 -0.101562 6.4375 0 6.789062 0 L 17.820312 0 C 18.117188 0 18.367188 -0.101562 18.519531 -0.398438 C 18.617188 -0.699219 18.617188 -0.949219 18.46875 -1.246094 C 17.667969 -2.144531 17.269531 -3.144531 17.269531 -4.292969 L 17.269531 -18.21875 C 17.269531 -18.667969 17.421875 -19.066406 17.769531 -19.367188 C 18.070312 -19.667969 18.46875 -19.867188 18.96875 -19.867188 L 30.546875 -19.867188 C 30.996094 -19.867188 31.394531 -19.667969 31.746094 -19.367188 C 32.046875 -19.066406 32.246094 -18.667969 32.246094 -18.21875 L 32.246094 -4.292969 C 32.246094 -3.144531 31.84375 -2.144531 31.046875 -1.296875 L 30.996094 -1.246094 C 30.796875 -0.949219 30.796875 -0.699219 30.945312 -0.398438 C 31.097656 -0.101562 31.347656 0 31.644531 0 L 42.726562 0 C 43.027344 0 43.226562 -0.101562 43.375 -0.398438 C 43.527344 -0.699219 43.527344 -0.949219 43.375 -1.246094 Z M 43.375 -1.246094 "/></g></g></g><path stroke-linecap="butt" transform="matrix(0.748794, 0, 0, 0.748794, 36.02881, 308.162327)" fill="none" stroke-linejoin="miter" d="M 90.111673 61.069249 L 90.049073 61.137066 C 88.84401 62.211711 87.50853 62.749033 85.98003 62.749033 L 51.721827 62.749033 C 50.12551 62.749033 48.795246 62.211711 47.590184 61.137066 L 47.590184 61.069249 C 47.18328 60.87623 46.854626 60.87623 46.447722 61.069249 C 46.061685 61.267484 45.931267 61.54397 45.931267 61.935224 L 45.931267 76.740277 C 45.931267 77.199349 46.061685 77.538436 46.447722 77.668854 C 46.854626 77.867089 47.18328 77.867089 47.590184 77.606253 C 48.795246 76.531609 50.12551 75.947336 51.721827 75.947336 L 60.918905 75.947336 C 61.257992 75.947336 61.586645 76.077754 61.847481 76.33859 C 62.123967 76.615076 62.254385 76.938513 62.254385 77.2776 L 62.254385 123.143007 C 62.254385 124.734107 61.717063 126.137404 60.658069 127.274649 L 60.590252 127.342467 C 60.313765 127.728504 60.313765 128.072808 60.527651 128.464062 C 60.658069 128.870966 60.981506 129.001384 61.456227 129.001384 L 76.24563 129.001384 C 76.652534 129.001384 76.91337 128.870966 77.111606 128.464062 C 77.320274 128.072808 77.320274 127.728504 77.111606 127.342467 C 75.990011 126.137404 75.452688 124.801924 75.452688 123.205607 L 75.452688 77.2776 C 75.452688 76.938513 75.583106 76.615076 75.859593 76.33859 C 76.120429 76.077754 76.376048 75.947336 76.782952 75.947336 L 85.98003 75.947336 C 87.591997 75.947336 88.911827 76.531609 90.049073 77.606253 L 90.111673 77.606253 C 90.455977 77.867089 90.779413 77.867089 91.186318 77.668854 C 91.577572 77.538436 91.791457 77.199349 91.791457 76.740277 L 91.791457 61.935224 C 91.791457 61.54397 91.577572 61.267484 91.186318 61.069249 C 90.779413 60.87623 90.455977 60.87623 90.111673 61.069249 Z M 148.309408 62.274311 C 147.172163 63.333306 145.836682 63.80281 144.370784 63.80281 L 108.844917 63.80281 C 108.370195 63.80281 108.046758 64.001046 107.91634 64.40795 C 107.702455 64.814854 107.702455 65.138291 107.978941 65.482594 L 108.177176 65.675613 C 109.251821 66.880676 109.773493 68.278757 109.773493 69.875073 L 109.773493 124.003766 C 109.773493 124.801924 109.643075 125.532265 109.382239 126.267822 C 109.105753 126.998163 108.714499 127.665904 108.177176 128.203226 L 107.978941 128.396244 C 107.702455 128.803149 107.702455 129.131802 107.91634 129.538706 C 108.046758 129.92996 108.370195 130.076028 108.844917 130.076028 L 144.370784 130.076028 C 145.836682 130.076028 147.172163 130.592484 148.309408 131.604528 C 148.632844 131.927964 149.039749 131.995782 149.446653 131.797546 C 149.837907 131.667128 150.098743 131.328041 150.098743 130.806369 L 150.098743 115.933499 C 150.098743 115.542245 149.905724 115.197941 149.51447 115.004923 C 149.107566 114.874505 148.700662 114.937105 148.439826 115.197941 C 147.234763 116.340403 145.836682 116.877725 144.240366 116.877725 L 124.646363 116.877725 C 124.176858 116.877725 123.785604 116.731657 123.441301 116.403004 C 123.117864 116.126518 122.971796 115.735264 122.971796 115.197941 L 122.971796 105.207922 C 122.971796 104.7332 123.117864 104.326296 123.441301 104.002859 C 123.785604 103.742023 124.176858 103.528137 124.646363 103.528137 L 130.50474 103.528137 C 132.116707 103.528137 133.514788 104.133277 134.704201 105.207922 C 135.043287 105.468758 135.371941 105.468758 135.778845 105.270522 C 136.170099 105.077504 136.378768 104.7332 136.378768 104.326296 L 136.378768 89.536893 C 136.378768 89.145639 136.170099 88.869153 135.778845 88.670917 C 135.371941 88.477899 135.043287 88.477899 134.704201 88.670917 C 133.514788 89.813379 132.116707 90.329834 130.50474 90.329834 L 124.646363 90.329834 C 124.176858 90.329834 123.785604 90.199416 123.441301 89.87598 C 123.117864 89.599494 122.971796 89.20824 122.971796 88.670917 L 122.971796 78.680897 C 122.971796 78.206176 123.117864 77.799272 123.441301 77.475835 C 123.785604 77.199349 124.176858 77.001113 124.646363 77.001113 L 144.240366 77.001113 C 145.836682 77.001113 147.234763 77.606253 148.439826 78.680897 C 148.700662 79.004334 149.107566 79.072152 149.51447 78.873916 C 149.905724 78.743498 150.098743 78.404411 150.098743 77.92969 L 150.098743 63.004652 C 150.098743 62.602965 149.837907 62.274311 149.446653 62.081293 C 149.039749 61.935224 148.632844 62.013475 148.309408 62.274311 Z M 203.898782 59.410332 C 202.761537 60.469326 201.426057 60.938831 199.960158 60.938831 L 193.434041 60.938831 C 188.56684 60.938831 184.174362 61.867407 180.173137 63.672392 C 176.166696 65.482594 172.765394 68.132688 169.838814 71.601808 C 167.298271 74.674456 165.362867 78.075758 164.043037 81.936131 C 162.707557 85.806938 162.107634 89.813379 162.107634 94.07544 C 162.107634 98.207083 162.775374 102.276125 164.110854 106.199098 C 165.441118 110.20554 167.360871 113.732043 170.031832 116.794258 C 172.702793 119.934724 175.973677 122.475267 179.828833 124.327202 C 183.704857 126.267822 188.227753 127.191182 193.434041 127.191182 L 199.960158 127.191182 C 201.426057 127.191182 202.761537 127.728504 203.898782 128.740548 C 204.227435 129.063985 204.63434 129.131802 205.041244 128.933567 C 205.427281 128.803149 205.625517 128.464062 205.625517 127.92674 L 205.625517 113.069519 C 205.625517 112.662615 205.427281 112.333962 205.041244 112.140943 C 204.63434 112.010525 204.305686 112.073126 204.0292 112.333962 C 202.761537 113.476424 201.358239 113.992879 199.82974 113.992879 L 193.434041 113.992879 C 189.83972 113.992879 186.829672 113.325139 184.497798 111.927058 C 182.171141 110.612444 180.303555 108.870059 178.968074 106.804238 C 177.632594 104.801017 176.641417 102.604778 176.104095 100.340721 C 175.566773 98.061014 175.305937 95.932592 175.305937 94.07544 C 175.305937 91.404479 175.697191 88.869153 176.495349 86.412077 C 177.309157 84.001952 178.493353 81.868314 179.959251 80.078979 C 183.230135 76.140355 187.706081 74.137134 193.434041 74.137134 L 199.82974 74.137134 C 201.358239 74.137134 202.761537 74.742273 204.0292 75.801268 C 204.305686 76.140355 204.63434 76.208172 205.041244 76.009937 C 205.427281 75.863868 205.625517 75.540432 205.625517 75.06571 L 205.625517 60.140673 C 205.625517 59.733768 205.427281 59.410332 205.041244 59.196446 C 204.63434 59.071245 204.227435 59.133846 203.898782 59.410332 Z M 271.617032 127.342467 L 271.486614 127.274649 C 270.427619 126.137404 269.952898 124.801924 269.952898 123.205607 L 269.952898 68.539593 C 269.952898 67.011094 270.427619 65.675613 271.486614 64.470551 L 271.617032 64.40795 C 271.8257 64.079297 271.8257 63.74021 271.617032 63.333306 C 271.418796 62.942052 271.15796 62.749033 270.751056 62.749033 L 255.961653 62.749033 C 255.554749 62.749033 255.226096 62.942052 255.033077 63.333306 C 254.819191 63.74021 254.819191 64.079297 255.095678 64.40795 L 255.163495 64.40795 C 256.217273 65.613012 256.754595 67.011094 256.754595 68.476992 L 256.754595 87.074601 C 256.754595 87.742341 256.498975 88.264013 256.092071 88.670917 C 255.61735 89.077822 255.095678 89.276057 254.495755 89.276057 L 239.017745 89.276057 C 238.365655 89.276057 237.828333 89.077822 237.421428 88.670917 C 236.967574 88.264013 236.753688 87.742341 236.753688 87.074601 L 236.753688 68.409175 C 236.753688 66.943276 237.29101 65.613012 238.365655 64.40795 C 238.56389 64.079297 238.56389 63.74021 238.433472 63.333306 C 238.219587 62.942052 237.89615 62.749033 237.489246 62.749033 L 222.757227 62.749033 C 222.287722 62.749033 221.964285 62.942052 221.833867 63.333306 C 221.619982 63.74021 221.619982 64.079297 221.896468 64.40795 L 222.026886 64.538368 C 223.018063 65.675613 223.555385 67.011094 223.555385 68.539593 L 223.555385 123.143007 C 223.555385 124.734107 223.018063 126.137404 222.026886 127.191182 L 221.896468 127.342467 C 221.619982 127.728504 221.619982 128.072808 221.833867 128.464062 C 221.964285 128.870966 222.287722 129.001384 222.757227 129.001384 L 237.489246 129.001384 C 237.89615 129.001384 238.219587 128.870966 238.433472 128.464062 C 238.56389 128.072808 238.56389 127.728504 238.365655 127.342467 C 237.29101 126.137404 236.753688 124.801924 236.753688 123.273425 L 236.753688 104.670599 C 236.753688 104.06546 236.967574 103.528137 237.421428 103.1421 C 237.828333 102.735196 238.365655 102.47436 239.017745 102.47436 L 254.495755 102.47436 C 255.095678 102.47436 255.61735 102.735196 256.092071 103.1421 C 256.498975 103.528137 256.754595 104.06546 256.754595 104.670599 L 256.754595 123.273425 C 256.754595 124.801924 256.217273 126.137404 255.163495 127.274649 L 255.095678 127.342467 C 254.819191 127.728504 254.819191 128.072808 255.033077 128.464062 C 255.226096 128.870966 255.554749 129.001384 255.961653 129.001384 L 270.751056 129.001384 C 271.15796 129.001384 271.418796 128.870966 271.617032 128.464062 C 271.8257 128.072808 271.8257 127.728504 271.617032 127.342467 Z M 271.617032 127.342467 " stroke="#28502e" stroke-width="2.416657" stroke-opacity="1" stroke-miterlimit="4"/></svg>